<!-- Generator: Adobe Illustrator 18.0.0, SVG Export Plug-In  -->
<svg version="1.1"
	 xmlns="http://www.w3.org/2000/svg" xmlns:xlink="http://www.w3.org/1999/xlink" xmlns:a="http://ns.adobe.com/AdobeSVGViewerExtensions/3.0/"
	 x="0px" y="0px" width="291.9px" height="61px" viewBox="0 0 291.9 61" enable-background="new 0 0 291.9 61" xml:space="preserve"
	>
<defs>
<style>
.tooth {
    animation: floater 1s ease-in alternate infinite;
}

@keyframes floater {
    0% {transform:translateX(5px);}

}
.line1 {
opacity:0;
    animation: showIn 10s 1s ease-in-out forwards;
}

.line20, .line21 {
opacity:0;
    animation: upIn 10s 1s ease-in-out forwards;
}

@keyframes rightIn {
    0% {opacity:0;transform:translate3d(-80%, 0, 0);}
    10% {opacity:1;transform:translate3d(10%, 0, 0) scaleX(0.75);}
    20% {opacity:1;transform:translate3d(0%, 0, 0) scaleX(1);}
    100% {opacity:1;transform:translate3d(0, 0, 0);}
}
@keyframes showIn {
    0%{opacity:0; transform:translateY(-5%);}
    10%, 100%{opacity:1; transform:translateY(0);}
}
@keyframes upIn {
    0%{opacity:0; transform:translateY(5%);}
    10%, 100%{opacity:1; transform:translateY(0);}
}

</style>
</defs>
<g class="tooth">
	<g>
		<path fill="#ffffff" d="M64.3,30.4c-0.5,1.6-1,2.7-1,2.7c-2,6.7-8.5,19.9-8.5,19.9c-2.4,4.9-5.1,1.9-5.1,1.9
			c-3.7-4.7-6.7-12.3-6.7-12.3l-1.4,5c3,8.9,6.2,11.6,6.2,11.6c5.2,4.7,9.9-2.6,9.9-2.6c6.8-11.9,10.3-21.1,12.1-27.5
			C68.2,29.7,66.3,30.1,64.3,30.4z"/>
		<path fill="#ffffff" d="M43.3,9.5c3.1-0.9,6-2.1,9-3.2c4-1.5,8.8-0.7,11.7,2.6c2.8,3.2,2.9,7.8,2.8,11.9c0,0.5-0.1,1.1-0.2,1.8
			c2-0.6,3.7-1.3,5.1-2c0.2-1.6,0.1-2.4,0.1-2.4c0.2-7.8-2.3-11.6-2.3-11.6C65-1,55.2-1.4,48.3,3.2c-2.3,1.6-4.4,3.5-7,4.7
			c-2.4,1.1-5.1,2-7.8,2.4C36.8,10.6,38.8,10.8,43.3,9.5z"/>
	</g>
	<g>
		<path fill="#ffffff" d="M44.7,35c-3.8-1.3-5.3,6.7-5.9,8.9c0,0-4.5,17.1-8.3,11c0,0-6.7-8.8-11.2-22.6c-0.2-0.6-0.3-1.2-0.5-1.8
			c-1.9-0.4-3.8-0.8-5.5-1.2c2.2,7.6,5.3,14.9,9.2,21.7c1,1.7,2,3.4,3.1,5.1c1.3,1.9,2.7,4.1,5.1,4.8c2.7,0.7,5.1-0.9,6.4-3.2
			c2.4-4.5,3.6-9.2,4.9-14.1c0.5-1.7,0.7-3.7,1.8-5.1c0.9-1.1,2.2-1.4,3.4-0.6c-0.2-0.1-0.5-0.9-0.6-1.1
			C46.1,35.9,45.5,35.2,44.7,35z"/>
		<path fill="#ffffff" d="M11.1,20.4c1.5,0.8,3.4,1.5,5.7,2.2c-0.7-3.1-1.1-6.3-0.3-9.3c0.9-3.4,3.2-6.6,6.5-8
			c3-1.2,6.4-0.8,9.4,0.3c2.3,0.8,4.5,1.9,6.5,3.2l2.6,1.1l-0.3-2c0,0-5.5-9.9-17.7-7.6c0,0-13.6,2.2-12.6,18.7
			C11,19.3,11.1,19.8,11.1,20.4z"/>
	</g>
	<path fill="#ffffff" d="M74.7,12c1.7,1.3,2.7,2.7,2.7,4.2c0,6.1-16.1,11-35.9,11c-19.8,0-35.9-4.9-35.9-11c0-1.5,1-2.9,2.7-4.2
		C3.1,14,0,16.4,0,19.1c0,6.5,18.6,11.8,41.6,11.8c23,0,41.6-5.3,41.6-11.8C83.1,16.4,80,14,74.7,12z"/>
	<path fill="#ffffff" d="M47.7,11.4c0,0,9.5-6.8,14.2,0.4c0,0,2.7,3.1,2.6,11c0,0-1.8,1.1-2.7,1.1C61.7,23.9,63.8,6.8,47.7,11.4z"/>
	<path fill="#ffffff" d="M69.1,36.3c0,0,4.3-10,8.8-8.3c0,0,2.8,1.6,0,5.2c0,0-5.2,4.3-8.8,5.4C69.1,38.5,67.8,38.8,69.1,36.3z"/>
	<path fill="#ffffff" d="M13.8,36.3c0,0-4.3-10-8.8-8.3c0,0-2.8,1.6,0,5.2c0,0,5.2,4.3,8.8,5.4C13.8,38.5,15.2,38.8,13.8,36.3z"/>
</g>
<g class="line1">
	<path fill="#ffffff" d="M107.4,10.1c-0.5-0.5-1.1-1-1.9-1.3s-1.7-0.5-2.7-0.5c-1.5,0-2.6,0.3-3.3,0.9c-0.7,0.6-1,1.3-1,2.3
		c0,0.5,0.1,0.9,0.3,1.3c0.2,0.3,0.5,0.6,0.9,0.9c0.4,0.2,0.9,0.4,1.5,0.6c0.6,0.2,1.3,0.4,2.1,0.5c0.9,0.2,1.7,0.4,2.5,0.6
		c0.7,0.2,1.3,0.5,1.9,0.9c0.5,0.4,0.9,0.8,1.2,1.3s0.4,1.2,0.4,1.9c0,0.8-0.2,1.5-0.5,2s-0.7,1.1-1.3,1.4c-0.5,0.4-1.2,0.7-1.9,0.9
		s-1.6,0.3-2.5,0.3c-2.6,0-4.9-0.8-6.8-2.5l0.8-1.4c0.3,0.3,0.7,0.6,1.1,0.9c0.4,0.3,0.9,0.5,1.4,0.8c0.5,0.2,1.1,0.4,1.7,0.5
		c0.6,0.1,1.2,0.2,1.9,0.2c1.4,0,2.4-0.2,3.2-0.7c0.8-0.5,1.1-1.2,1.1-2.2c0-0.5-0.1-1-0.3-1.3c-0.2-0.4-0.5-0.7-1-0.9
		c-0.4-0.3-1-0.5-1.6-0.7c-0.6-0.2-1.4-0.4-2.2-0.6c-0.9-0.2-1.7-0.4-2.4-0.6c-0.7-0.2-1.2-0.5-1.7-0.8c-0.5-0.3-0.8-0.7-1-1.2
		c-0.2-0.5-0.3-1.1-0.3-1.7c0-0.8,0.1-1.5,0.4-2.1C97.4,9,97.9,8.4,98.4,8c0.5-0.4,1.2-0.7,1.9-0.9c0.7-0.2,1.6-0.3,2.4-0.3
		c1.1,0,2.1,0.2,3,0.5c0.9,0.3,1.7,0.8,2.4,1.5L107.4,10.1z"/>
	<path fill="#ffffff" d="M123.5,22.5v1.5H112v-17h11.2v1.5h-9.6v6.1h8.3v1.4h-8.3v6.5H123.5z"/>
	<path fill="#ffffff" d="M126.6,6.9l6.1,15l6.1-15h1.8l-7.1,17h-1.5l-7.1-17H126.6z"/>
	<path fill="#ffffff" d="M142.9,23.9v-17h1.7v17H142.9z"/>
	<path fill="#ffffff" d="M148.9,23.9v-17h1.7v15.6h9.8v1.5H148.9z"/>
	<path fill="#ffffff" d="M162.9,23.9v-17h1.7v15.6h9.8v1.5H162.9z"/>
	<path fill="#ffffff" d="M188.3,22.5v1.5h-11.4v-17h11.2v1.5h-9.6v6.1h8.3v1.4h-8.3v6.5H188.3z"/>
</g>
<g class="line21">
	<path fill="#ffffff" d="M216.3,46.5c0-1,0.2-2,0.5-3.1c0.4-1,0.9-1.9,1.6-2.7c0.7-0.8,1.5-1.5,2.5-2s2.2-0.8,3.4-0.8
		c1.5,0,2.8,0.3,3.9,1c1.1,0.7,1.9,1.6,2.4,2.7l-1.3,0.8c-0.3-0.6-0.6-1-1-1.4c-0.4-0.4-0.8-0.7-1.3-0.9c-0.4-0.2-0.9-0.4-1.4-0.5
		s-1-0.2-1.4-0.2c-1,0-1.9,0.2-2.7,0.6c-0.8,0.4-1.4,1-2,1.6s-0.9,1.4-1.2,2.3c-0.3,0.8-0.4,1.7-0.4,2.6c0,0.9,0.2,1.8,0.5,2.7
		s0.8,1.6,1.3,2.3c0.6,0.7,1.2,1.2,2,1.6c0.8,0.4,1.6,0.6,2.5,0.6c0.5,0,1-0.1,1.5-0.2s1-0.3,1.5-0.6s0.9-0.6,1.3-1
		c0.4-0.4,0.7-0.9,1-1.4l1.4,0.7c-0.3,0.6-0.7,1.2-1.2,1.7c-0.5,0.5-1,0.9-1.7,1.2c-0.6,0.3-1.3,0.6-1.9,0.8c-0.7,0.2-1.3,0.3-2,0.3
		c-1.2,0-2.2-0.3-3.2-0.8c-1-0.5-1.8-1.2-2.5-2s-1.3-1.8-1.6-2.8C216.5,48.6,216.3,47.6,216.3,46.5z"/>
	<path fill="#ffffff" d="M233.9,55.1v-17h1.7v15.6h9.8v1.5H233.9z"/>
	<path fill="#ffffff" d="M247.9,55.1v-17h1.7v17H247.9z"/>
	<path fill="#ffffff" d="M255.5,41.2v13.9h-1.7v-17h1.3l11.3,14.2V38.1h1.7v17h-1.5L255.5,41.2z"/>
	<path fill="#ffffff" d="M272.4,55.1v-17h1.7v17H272.4z"/>
	<path fill="#ffffff" d="M277.2,46.5c0-1,0.2-2,0.5-3.1c0.4-1,0.9-1.9,1.6-2.7c0.7-0.8,1.5-1.5,2.5-2s2.2-0.8,3.4-0.8
		c1.5,0,2.8,0.3,3.9,1c1.1,0.7,1.9,1.6,2.4,2.7l-1.3,0.8c-0.3-0.6-0.6-1-1-1.4c-0.4-0.4-0.8-0.7-1.3-0.9c-0.4-0.2-0.9-0.4-1.4-0.5
		s-1-0.2-1.4-0.2c-1,0-1.9,0.2-2.7,0.6c-0.8,0.4-1.4,1-2,1.6s-0.9,1.4-1.2,2.3c-0.3,0.8-0.4,1.7-0.4,2.6c0,0.9,0.2,1.8,0.5,2.7
		s0.8,1.6,1.3,2.3c0.6,0.7,1.2,1.2,2,1.6c0.8,0.4,1.6,0.6,2.5,0.6c0.5,0,1-0.1,1.5-0.2s1-0.3,1.5-0.6s0.9-0.6,1.3-1
		c0.4-0.4,0.7-0.9,1-1.4l1.4,0.7c-0.3,0.6-0.7,1.2-1.2,1.7c-0.5,0.5-1,0.9-1.7,1.2c-0.6,0.3-1.3,0.6-1.9,0.8c-0.7,0.2-1.3,0.3-2,0.3
		c-1.2,0-2.2-0.3-3.2-0.8c-1-0.5-1.8-1.2-2.5-2s-1.3-1.8-1.6-2.8C277.4,48.6,277.2,47.6,277.2,46.5z"/>
</g>
<g class="line20">
	<path fill="#ffffff" d="M96.1,56.3V34.9h8.2c1.8,0,3.3,0.3,4.7,0.8c1.3,0.6,2.5,1.3,3.4,2.3c0.9,1,1.6,2.1,2.1,3.4
		c0.5,1.3,0.7,2.7,0.7,4.1c0,1.6-0.3,3.1-0.8,4.4c-0.5,1.3-1.2,2.4-2.2,3.4s-2.1,1.7-3.4,2.2c-1.3,0.5-2.8,0.8-4.4,0.8H96.1z
		 M109.2,45.6c0-0.8-0.1-1.6-0.3-2.3c-0.2-0.7-0.5-1.3-0.9-1.7c-0.4-0.5-0.9-0.9-1.5-1.1c-0.6-0.3-1.3-0.4-2-0.4H102v11.2h2.4
		c0.8,0,1.4-0.1,2.1-0.4s1.1-0.7,1.5-1.2c0.4-0.5,0.7-1.1,0.9-1.8S109.2,46.4,109.2,45.6z"/>
	<path fill="#ffffff" d="M133,51.2v5.1h-15.3V34.9h15V40h-9.1v3h7.8v4.8h-7.8v3.4H133z"/>
	<path fill="#ffffff" d="M141.6,45.8v10.5h-5.9V34.9h4.6l8.6,10.9V34.9h5.9v21.4h-4.7L141.6,45.8z"/>
	<path fill="#ffffff" d="M175.2,40H169v16.3h-5.9V40h-6.2v-5.1h18.2V40z"/>
	<path fill="#ffffff" d="M180.9,34.9h5.4l7.4,21.4h-6l-1.3-4.2h-5.7l-1.3,4.2h-6L180.9,34.9z M185.5,48.2l-1.9-6.6l-2,6.6H185.5z"/>
	<path fill="#ffffff" d="M195.4,56.3V34.9h5.9v16.3h9.7v5.1H195.4z"/>
</g>
</svg>