<?xml version="1.0" encoding="utf-8"?>
<!-- Generator: Adobe Illustrator 22.0.1, SVG Export Plug-In . SVG Version: 6.00 Build 0)  -->
<svg version="1.1" id="Layer_1" xmlns="http://www.w3.org/2000/svg" xmlns:xlink="http://www.w3.org/1999/xlink" x="0px" y="0px"
	 viewBox="0 0 500 500" style="enable-background:new 0 0 500 500;" xml:space="preserve">
<style type="text/css">
	.st0{fill:#FFFFFF;}
</style>
<g id="_x35_">
	<g>
		<path class="st0" d="M268.5,488c-0.4,0-0.8,0-1.3,0l-2.4,0l-2.1-1.2c-15.2-9.1-22.4-35.7-21.6-79.1c0.4-19.7-3-38.2-10.1-54.9
			c-5.2-12.2-13.7-26.8-25.4-28c-11.6,1.2-20.2,15.9-25.4,28c-7.1,16.7-10.5,35.1-10.1,54.9c0.3,13.7-0.3,26-1.7,36.6l-1.2,9
			l-18-2.4l1.2-9c1.3-9.6,1.8-21.3,1.6-33.9c-0.4-22.3,3.4-43.3,11.5-62.4c10.6-24.9,24.5-38,41.5-39.1l0.6,0l0.6,0
			c17,1.1,31,14.3,41.5,39.1c8.1,19.1,12,40,11.5,62.4c-0.7,37,5.2,55.9,11.1,61.8c42-2.4,45.4-80.2,45.5-81l0-27.9
			c0-27.2,6.6-54.4,19.7-80.7c12.6-25.3,18.8-49.7,21.8-65.6c4.5-17.3,3.9-33.1-1.9-48.8c-12.2-33.1-43.1-55.6-77-56.1
			c-18.6-0.4-36.3,5.5-51.1,16.6c-12.8,9.6-30.7,9.6-43.5,0c-14.8-11.2-32.6-17-51.1-16.6c-33.8,0.5-64.8,23-77,56.1
			c-5.8,15.7-6.5,31.4-2.1,48.1c3.1,16.6,9.3,40.9,22,66.3c13.1,26.3,19.7,53.4,19.7,80.7v28.3c0,0.5,3.7,80.7,47.5,80.7
			c0.3,0,0.5,0,0.8,0l9.1-0.2l0.4,18.2l-9.1,0.2c-0.4,0-0.9,0-1.3,0c-61.1,0-65.4-94.5-65.6-98.5l0-28.6c0-24.4-6-48.8-17.8-72.6
			C46,261,39.3,235,36.1,217.9c-5.2-19.5-4.3-39.4,2.7-58.4c14.8-40.1,52.5-67.4,93.8-68c22.8-0.3,44.2,6.7,62.3,20.3
			c6.5,4.9,15.2,4.9,21.6,0c17.7-13.3,38.6-20.3,60.8-20.3c0.5,0,1,0,1.5,0c41.3,0.6,79,27.9,93.8,68c7,19,7.9,38.9,2.6,59
			c-3.1,16.4-9.7,42.5-23.3,69.7c-11.8,23.7-17.8,48.2-17.8,72.6v28.3C333.9,393.5,329.6,488,268.5,488z"/>
	</g>
	<g>
		<path class="st0" d="M400.8,143.2c-4.4,0-8.2-2.9-9.4-7.1l-4.4-15.8c-3.9-13.9-15-25-28.9-28.9L342.3,87c-4.2-1.2-7.1-5-7.1-9.4
			s2.9-8.2,7.1-9.4l15.8-4.4c13.9-3.9,25-15,28.9-28.9l4.4-15.8c1.2-4.2,5-7.1,9.4-7.1c4.4,0,8.2,2.9,9.4,7.1l4.4,15.8
			c3.9,13.9,15,25,28.9,28.9l15.8,4.4c4.2,1.2,7.1,5,7.1,9.4s-2.9,8.2-7.1,9.4l-15.8,4.4c-13.9,3.9-25,15-28.9,28.9l-4.4,15.8
			C409,140.3,405.1,143.2,400.8,143.2z M392.6,131.2C392.6,131.2,392.6,131.2,392.6,131.2L392.6,131.2z M408.9,131.2L408.9,131.2
			C408.9,131.2,408.9,131.2,408.9,131.2z M372.7,77.6c12.2,5.9,22.1,15.8,28,28c5.9-12.2,15.8-22.1,28-28c-12.2-5.9-22.1-15.8-28-28
			C394.9,61.8,384.9,71.7,372.7,77.6z M454.3,85.7C454.3,85.7,454.4,85.7,454.3,85.7L454.3,85.7z M454.4,69.5
			C454.3,69.5,454.3,69.5,454.4,69.5L454.4,69.5z M395.7,37.4L395.7,37.4L395.7,37.4z M392.6,24C392.6,24,392.6,24,392.6,24
			L392.6,24z M408.9,24L408.9,24C408.9,24,408.9,24,408.9,24z"/>
	</g>
	<g>
		<path class="st0" d="M85,221.6l-0.6-9.1c-3.1-43.8,25.3-65.1,40.7-70.3l8.6-2.9l5.7,17.2l-8.6,2.9c-1.5,0.5-31.2,11.6-28.4,51.8
			l0.7,9.1L85,221.6z"/>
	</g>
</g>
</svg>
